<?xml version="1.0" encoding="utf-8"?>
<!-- Generator: Adobe Illustrator 25.0.0, SVG Export Plug-In . SVG Version: 6.00 Build 0)  -->
<svg version="1.1" id="Layer_1" xmlns="http://www.w3.org/2000/svg" xmlns:xlink="http://www.w3.org/1999/xlink" x="0px" y="0px"
	 viewBox="0 0 737.4 754.9" style="enable-background:new 0 0 737.4 754.9;" xml:space="preserve">
<style type="text/css">
	.st0{fill:none;stroke:#707070;stroke-miterlimit:10;}
	.st1{fill:#466057;}
	.st2{fill:#536B8F;}
	.st3{fill:#401851;}
	.st4{fill:#78B0A3;}
	.st5{fill:#AA6770;}
</style>
<path class="st0" d="M117.2,365.7c0-143.2,111.5-259.3,249-259.3c60,0,115,22.1,158,58.9"/>
<path class="st0" d="M400.9,621.5c-13.6,2.3-27.5,3.5-41.7,3.5c-83.1,0-157-41.3-203.7-105.2"/>
<path class="st0" d="M478.7,663.3c-34.7,12.8-72.1,19.8-111.2,19.8c-177.1,0-320.7-143.6-320.7-320.7"/>
<path class="st0" d="M239.8,68.1c39.1-17,82.3-26.4,127.6-26.4c170.5,0,309.9,133.1,320.1,301.1"/>
<path class="st0" d="M243.8,196.7c35-27.4,79.1-43.8,127.1-43.8C484.7,152.9,577,245.1,577,359c0,98-68.4,180.1-160.2,201"/>
<path class="st0" d="M370.9,486c-70.2,0-127.1-56.9-127.1-127.1c0-43.9,22.2-82.5,56-105.4"/>
<path class="st0" d="M299.8,253.6c20.3-13.7,44.7-21.7,71-21.7c1.4,0,2.8,0,4.2,0.1"/>
<circle class="st0" cx="370.8" cy="358.9" r="79.1"/>
<g id="Group_1" transform="translate(225.786 142.87)">
	<circle id="Ellipse_4" class="st1" cx="184.6" cy="282.2" r="7"/>
	<circle id="Ellipse_5" class="st2" cx="424.8" cy="66.2" r="10"/>
</g>
<circle id="Ellipse_12" class="st3" cx="185.8" cy="550.8" r="11.1"/>
<ellipse id="Ellipse_13" transform="matrix(0.6018 -0.7987 0.7987 0.6018 15.074 343.0849)" class="st4" cx="351.6" cy="156.4" rx="14.5" ry="13.8"/>
<ellipse id="Ellipse_16" class="st5" cx="243.8" cy="348.7" rx="8.9" ry="9"/>
<path class="st0" d="M248.6,77"/>
</svg>
